<svg width="110" height="92" viewBox="0 0 110 92" fill="none" xmlns="http://www.w3.org/2000/svg">
  <defs>
    <linearGradient id="footerLeft" x1="8" y1="17" x2="62" y2="82" gradientUnits="userSpaceOnUse">
      <stop stop-color="#1DD6AE"/>
      <stop offset="1" stop-color="#00C896"/>
    </linearGradient>
    <linearGradient id="footerRight" x1="49" y1="14" x2="100" y2="80" gradientUnits="userSpaceOnUse">
      <stop stop-color="#C83FE0"/>
      <stop offset="1" stop-color="#9C27B0"/>
    </linearGradient>
    <linearGradient id="footerHeart" x1="39" y1="24" x2="70" y2="67" gradientUnits="userSpaceOnUse">
      <stop stop-color="#FF6B68"/>
      <stop offset="1" stop-color="#FDD835"/>
    </linearGradient>
  </defs>
  <path d="M15 45L41 19C43.8 16.2 48.2 16.2 51 19L57 24.8V77C57 80.3 54.3 83 51 83H25C21.7 83 19 80.3 19 77V49L16.9 51C14.4 53.3 10.4 53.1 8.1 50.7C5.8 48.2 6 44.2 8.4 41.9L15 45Z" fill="url(#footerLeft)"/>
  <path d="M46 24L58 12C60.8 9.2 65.2 9.2 68 12L94 37.5C96.5 40 96.7 44 94.3 46.5C92 49 88 49.2 85.5 46.9L84 45.5V77C84 80.3 81.3 83 78 83H52C48.7 83 46 80.3 46 77V24Z" fill="url(#footerRight)"/>
  <path d="M55 34C51.5 29 44.3 28 39.6 31.8C34.9 35.6 34.4 42.6 38.1 47.1L53.3 64.5C54.3 65.6 56 65.6 56.9 64.5L72.2 47.1C75.9 42.8 75.4 35.9 70.8 32C66.1 28.1 59.1 28.9 55.7 33.7L55.4 34.1C55.2 34.4 55 34.4 55 34Z" fill="url(#footerHeart)"/>
</svg>