<svg width="110" height="92" viewBox="0 0 110 92" fill="none" xmlns="http://www.w3.org/2000/svg">
  <defs>
    <linearGradient id="brandLeft" x1="8" y1="17" x2="62" y2="82" gradientUnits="userSpaceOnUse">
      <stop stop-color="#1DD6AE"/>
      <stop offset="1" stop-color="#00C896"/>
    </linearGradient>
    <linearGradient id="brandRight" x1="49" y1="14" x2="100" y2="80" gradientUnits="userSpaceOnUse">
      <stop stop-color="#2491FF"/>
      <stop offset="1" stop-color="#0080FF"/>
    </linearGradient>
    <linearGradient id="brandHeart" x1="39" y1="24" x2="70" y2="67" gradientUnits="userSpaceOnUse">
      <stop stop-color="#FF6B68"/>
      <stop offset="0.55" stop-color="#FF8D67"/>
      <stop offset="1" stop-color="#FDD835"/>
    </linearGradient>
  </defs>
  <path d="M8 40.5L35.5 14C38.6 11 43.5 11 46.6 14L54 21.1V77.5C54 81.1 51.1 84 47.5 84H20.5C16.9 84 14 81.1 14 77.5V45L11.5 47.3C8.7 50 4.3 49.8 1.7 46.9C-0.9 44 -0.6 39.6 2.3 37.1L8 40.5Z" fill="url(#brandLeft)" transform="translate(8,0)"/>
  <path d="M47 21.5L58.8 10C61.9 7 66.8 7 69.9 10L98 37.2C100.8 39.9 101 44.4 98.3 47.2C95.7 50 91.3 50.2 88.5 47.5L86 45.1V77.5C86 81.1 83.1 84 79.5 84H53.5C49.9 84 47 81.1 47 77.5V21.5Z" fill="url(#brandRight)"/>
  <path d="M55.2 33.4C50.8 26.7 41.1 24.9 34.6 30.3C28.1 35.7 27.2 45.4 32.4 51.8L52.6 74.3C53.8 75.6 55.9 75.7 57.1 74.4L77.7 52.1C83.2 46.1 82.8 36.4 76.7 30.8C70.7 25.1 61.4 26.3 56.9 33.3L56.1 34.4C55.9 34.8 55.4 34.8 55.2 33.4Z" fill="url(#brandHeart)"/>
</svg>