<svg width="92" height="84" viewBox="0 0 92 84" fill="none" xmlns="http://www.w3.org/2000/svg" role="img" aria-label="Dom mamy">
  <defs>
    <linearGradient id="mom-fill" x1="46" y1="6" x2="46" y2="76" gradientUnits="userSpaceOnUse">
      <stop stop-color="#FF7D72"/>
      <stop offset="1" stop-color="#FF6B68"/>
    </linearGradient>
    <linearGradient id="mom-heart" x1="33" y1="40" x2="59" y2="66" gradientUnits="userSpaceOnUse">
      <stop stop-color="#1DD6AE"/>
      <stop offset="1" stop-color="#00C896"/>
    </linearGradient>
  </defs>
  <path d="M14 28L46 6L78 28V76H14V28Z" fill="url(#mom-fill)"/>
  <path d="M34 76V58C34 51.4 39.4 46 46 46C52.6 46 58 51.4 58 58V76" fill="#fff" fill-opacity="0.95"/>
  <path d="M46 43C49.8 37.5 56.8 36.2 60.2 40.8C62.7 44.1 62.1 48.4 58.6 52.2L46 63.5L33.4 52.2C29.9 48.4 29.3 44.1 31.8 40.8C35.2 36.2 42.2 37.5 46 43Z" fill="url(#mom-heart)"/>
</svg>
