<svg width="146" height="62" viewBox="0 0 146 62" fill="none" xmlns="http://www.w3.org/2000/svg"><circle cx="27" cy="31" r="23" fill="#D57F65" stroke="white" stroke-width="6"/><circle cx="57" cy="31" r="23" fill="#3687FF" stroke="white" stroke-width="6"/><circle cx="87" cy="31" r="23" fill="#F3A600" stroke="white" stroke-width="6"/><circle cx="27" cy="26" r="8" fill="#F7D8C9"/><path d="M14 43C16.9 37.5 21.6 35 27 35C32.4 35 37.1 37.5 40 43" fill="#F7D8C9"/><circle cx="57" cy="26" r="8" fill="#E6F0FF"/><path d="M44 43C46.9 37.5 51.6 35 57 35C62.4 35 67.1 37.5 70 43" fill="#E6F0FF"/><circle cx="87" cy="26" r="8" fill="#FFF0C9"/><path d="M74 43C76.9 37.5 81.6 35 87 35C92.4 35 97.1 37.5 100 43" fill="#FFF0C9"/></svg>