<svg width="204" height="58" viewBox="0 0 204 58" fill="none" xmlns="http://www.w3.org/2000/svg" role="img" aria-labelledby="appStoreLogoTitle">
  <title id="appStoreLogoTitle">App Store</title>
  <path d="M34.6 17.1C36 15.4 37 13.1 36.8 10.8C34.6 10.9 32.2 12.2 30.8 13.9C29.5 15.4 28.4 17.7 28.7 19.8C31 20 33.2 18.8 34.6 17.1Z" fill="#111111"/>
  <path d="M41.1 30.2C41.1 25.2 45.2 22.8 45.4 22.7C43.1 19.3 39.6 18.7 38.4 18.7C35.1 18.3 32 20.7 30.3 20.7C28.5 20.7 25.8 18.8 23.1 18.9C19.6 19 16.3 21 14.5 24.1C11 30 13.6 38.7 17 43.5C18.7 45.8 20.6 48.4 23.1 48.3C25.5 48.2 26.4 46.8 29.4 46.8C32.4 46.8 33.2 48.3 35.7 48.2C38.3 48.2 39.9 45.9 41.5 43.6C43.4 40.9 44.1 38.3 44.2 38.2C44.1 38.2 41.1 37 41.1 30.2Z" fill="#111111"/>
  <path d="M63.8 38.4H57.8L56.4 42.6H52.5L58.2 26.5H63.5L69.3 42.6H65.2L63.8 38.4ZM58.7 35.3H62.8L60.8 29.2H60.7L58.7 35.3Z" fill="#111111"/>
  <path d="M84 36.8C84 40.4 82.1 42.8 79.2 42.8C77.5 42.8 76.2 42.1 75.5 40.8H75.4V46.5H71.6V30.8H75.3V32.8H75.4C76.1 31.5 77.5 30.6 79.2 30.6C82.1 30.6 84 33 84 36.8ZM80.2 36.8C80.2 34.8 79.3 33.6 77.8 33.6C76.4 33.6 75.4 34.9 75.4 36.8C75.4 38.7 76.4 39.9 77.8 39.9C79.3 39.9 80.2 38.7 80.2 36.8Z" fill="#111111"/>
  <path d="M98.9 36.8C98.9 40.4 97 42.8 94.1 42.8C92.4 42.8 91.1 42.1 90.4 40.8H90.3V46.5H86.5V30.8H90.2V32.8H90.3C91 31.5 92.4 30.6 94.1 30.6C97 30.6 98.9 33 98.9 36.8ZM95.1 36.8C95.1 34.8 94.2 33.6 92.7 33.6C91.3 33.6 90.3 34.9 90.3 36.8C90.3 38.7 91.3 39.9 92.7 39.9C94.2 39.9 95.1 38.7 95.1 36.8Z" fill="#111111"/>
  <path d="M110.1 38.1C110.3 39.4 111.7 40.2 113.6 40.2C115.3 40.2 116.5 39.4 116.5 38.3C116.5 37.3 115.8 36.8 113.9 36.4L111.8 35.9C108.8 35.2 107.3 33.6 107.3 31.2C107.3 28.2 110 26.2 113.8 26.2C117.7 26.2 120.2 28.1 120.3 31.1H116.6C116.4 29.8 115.3 29.1 113.7 29.1C112.1 29.1 111.1 29.8 111.1 30.9C111.1 31.8 111.8 32.3 113.6 32.7L115.6 33.1C118.9 33.9 120.4 35.3 120.4 37.8C120.4 41 117.7 43 113.5 43C109.3 43 106.6 41.1 106.4 38.1H110.1Z" fill="#111111"/>
  <path d="M127.9 28V30.8H130.2V33.6H127.9V38.7C127.9 39.6 128.4 40.1 129.4 40.1C129.7 40.1 130 40.1 130.2 40V42.7C129.8 42.8 129.1 42.9 128.4 42.9C125.4 42.9 124.1 41.9 124.1 39.4V33.6H122.4V30.8H124.1V28H127.9Z" fill="#111111"/>
  <path d="M132.2 36.7C132.2 33 134.4 30.6 138 30.6C141.6 30.6 143.9 33 143.9 36.7C143.9 40.5 141.6 42.9 138 42.9C134.4 42.9 132.2 40.5 132.2 36.7ZM140 36.7C140 34.6 139.3 33.5 138 33.5C136.7 33.5 136 34.6 136 36.7C136 38.9 136.7 40 138 40C139.3 40 140 38.9 140 36.7Z" fill="#111111"/>
  <path d="M146.6 30.8H150.3V32.8H150.4C150.9 31.5 152 30.7 153.4 30.7C153.8 30.7 154.2 30.8 154.4 30.8V34.2C154.1 34.1 153.5 34 153 34C151.4 34 150.4 35 150.4 36.6V42.6H146.6V30.8Z" fill="#111111"/>
  <path d="M167.1 38.9C166.6 41.3 164.4 42.9 161.1 42.9C157.4 42.9 155.2 40.6 155.2 36.8C155.2 33 157.5 30.6 161 30.6C164.5 30.6 166.7 32.9 166.7 36.5V37.7H159C159 39.3 159.9 40.2 161.2 40.2C162.2 40.2 163 39.7 163.3 38.9H167.1ZM159 35.5H163C162.9 34.1 162.1 33.3 161 33.3C159.9 33.3 159.1 34.2 159 35.5Z" fill="#111111"/>
  <path d="M57.2 19.7C57.2 17.2 58.7 15.6 61 15.6C63.3 15.6 64.8 17.2 64.8 19.7C64.8 22.3 63.3 23.9 61 23.9C58.7 23.9 57.2 22.3 57.2 19.7ZM63 19.7C63 18.2 62.3 17.3 61 17.3C59.8 17.3 59 18.2 59 19.7C59 21.3 59.8 22.2 61 22.2C62.3 22.2 63 21.3 63 19.7Z" fill="#111111"/>
  <path d="M66.4 15.8H68.1V17.1H68.2C68.6 16.2 69.4 15.7 70.5 15.7C72.3 15.7 73.4 16.9 73.4 18.8V23.7H71.6V19.2C71.6 18 71.1 17.4 70.1 17.4C69 17.4 68.2 18.2 68.2 19.3V23.7H66.4V15.8Z" fill="#111111"/>
  <path d="M82.9 13.9V15.8H84.6V17.3H82.9V21.3C82.9 22.1 83.2 22.4 84 22.4C84.2 22.4 84.5 22.4 84.6 22.4V23.8C84.3 23.9 83.9 23.9 83.5 23.9C81.8 23.9 81.1 23.3 81.1 21.7V17.3H79.8V15.8H81.1V13.9H82.9Z" fill="#111111"/>
  <path d="M86.2 12.7H88V17.1H88.1C88.5 16.2 89.3 15.7 90.5 15.7C92.3 15.7 93.3 16.9 93.3 18.8V23.7H91.5V19.2C91.5 18 91 17.4 90 17.4C88.8 17.4 88 18.2 88 19.4V23.7H86.2V12.7Z" fill="#111111"/>
  <path d="M102.1 21.4C101.8 22.9 100.4 23.9 98.5 23.9C96.1 23.9 94.7 22.3 94.7 19.8C94.7 17.3 96.2 15.7 98.4 15.7C100.6 15.7 102 17.2 102 19.6V20.2H96.5V20.3C96.5 21.6 97.3 22.4 98.5 22.4C99.4 22.4 100 22 100.3 21.4H102.1ZM96.5 19H100.2C100.1 17.9 99.4 17.2 98.4 17.2C97.4 17.2 96.7 17.9 96.5 19Z" fill="#111111"/>
</svg>
