<svg width="214" height="58" viewBox="0 0 214 58" fill="none" xmlns="http://www.w3.org/2000/svg" role="img" aria-labelledby="googlePlayLogoTitle">
  <title id="googlePlayLogoTitle">Google Play</title>
  <path d="M15 12.4C14.4 13 14 13.9 14 15V43C14 44.1 14.4 45 15 45.6L31.4 29.2V28.8L15 12.4Z" fill="#00D68F"/>
  <path d="M36.8 23.8L31.4 28.8V29.2L36.8 34.2L43.2 30.5C45.1 29.4 45.1 26.6 43.2 25.5L36.8 23.8Z" fill="#FFD43B"/>
  <path d="M36.8 34.2L31.4 29L15 45.6C15.9 46.5 17.3 46.6 18.8 45.8L36.8 34.2Z" fill="#00A6FF"/>
  <path d="M36.8 23.8L18.8 12.2C17.3 11.4 15.9 11.5 15 12.4L31.4 29L36.8 23.8Z" fill="#FF6B68"/>
  <path d="M64.9 24.8C62.3 24.8 60.2 22.7 60.2 20.1C60.2 17.5 62.3 15.4 64.9 15.4C66.3 15.4 67.3 15.9 68.1 16.6L67.2 17.5C66.7 17 65.9 16.6 64.9 16.6C63 16.6 61.6 18.1 61.6 20.1C61.6 22.1 63 23.6 64.9 23.6C66.1 23.6 66.8 23.1 67.3 22.6C67.7 22.2 67.9 21.6 68 20.8H64.9V19.6H69.3C69.3 19.8 69.4 20.1 69.4 20.4C69.4 21.4 69.1 22.7 68.2 23.6C67.4 24.4 66.4 24.8 64.9 24.8Z" fill="#111111"/>
  <path d="M77 21.5C77 23.4 75.5 24.8 73.8 24.8C72 24.8 70.6 23.4 70.6 21.5C70.6 19.5 72 18.2 73.8 18.2C75.5 18.2 77 19.5 77 21.5ZM75.6 21.5C75.6 20.3 74.8 19.4 73.8 19.4C72.8 19.4 72 20.3 72 21.5C72 22.7 72.8 23.6 73.8 23.6C74.8 23.6 75.6 22.7 75.6 21.5Z" fill="#111111"/>
  <path d="M84.6 21.5C84.6 23.4 83.2 24.8 81.4 24.8C79.6 24.8 78.2 23.4 78.2 21.5C78.2 19.5 79.6 18.2 81.4 18.2C83.2 18.2 84.6 19.5 84.6 21.5ZM83.2 21.5C83.2 20.3 82.4 19.4 81.4 19.4C80.4 19.4 79.6 20.3 79.6 21.5C79.6 22.7 80.4 23.6 81.4 23.6C82.4 23.6 83.2 22.7 83.2 21.5Z" fill="#111111"/>
  <path d="M91.9 18.4V24.3C91.9 26.7 90.5 27.7 88.8 27.7C87.2 27.7 86.2 26.6 85.8 25.8L87 25.3C87.2 25.8 87.8 26.5 88.8 26.5C90 26.5 90.6 25.8 90.6 24.5V24H90.5C90.2 24.4 89.6 24.8 88.7 24.8C87 24.8 85.6 23.3 85.6 21.5C85.6 19.6 87 18.2 88.7 18.2C89.6 18.2 90.2 18.6 90.5 19H90.6V18.4H91.9ZM90.7 21.5C90.7 20.3 89.9 19.4 88.9 19.4C87.9 19.4 87 20.3 87 21.5C87 22.6 87.9 23.6 88.9 23.6C89.9 23.6 90.7 22.7 90.7 21.5Z" fill="#111111"/>
  <path d="M95 15.7V24.6H93.6V15.7H95Z" fill="#111111"/>
  <path d="M101.3 22.6L102.4 23.3C102 23.8 101.2 24.8 99.8 24.8C98 24.8 96.6 23.4 96.6 21.5C96.6 19.5 98 18.2 99.6 18.2C101.3 18.2 102.1 19.5 102.4 20.2L102.6 20.5L98.2 22.3C98.5 23.1 99.1 23.6 99.8 23.6C100.6 23.6 101 23.2 101.3 22.6ZM98 21.4L100.9 20.2C100.7 19.8 100.3 19.3 99.7 19.3C98.8 19.3 98 20.1 98 21.4Z" fill="#111111"/>
  <path d="M113.4 21.2H111.2V24.6H109.8V15.7H113.4C115.1 15.7 116.3 16.9 116.3 18.5C116.3 20.1 115.1 21.2 113.4 21.2ZM113.4 17H111.2V19.9H113.4C114.3 19.9 114.9 19.3 114.9 18.5C114.9 17.6 114.3 17 113.4 17Z" fill="#111111"/>
  <path d="M119 15.7V24.6H117.6V15.7H119Z" fill="#111111"/>
  <path d="M123.2 18.2C124.8 18.2 125.9 19.1 125.9 20.7V24.6H124.6V23.7H124.5C124.1 24.4 123.4 24.8 122.6 24.8C121.3 24.8 120.3 24 120.3 22.9C120.3 21.7 121.4 21 122.9 21C123.6 21 124.1 21.1 124.5 21.3V21C124.5 20.1 123.8 19.4 122.9 19.4C122.2 19.4 121.7 19.7 121.4 20.3L120.2 19.8C120.6 19 121.5 18.2 123.2 18.2ZM121.8 22.9C121.8 23.4 122.3 23.7 122.8 23.7C123.6 23.7 124.5 23 124.5 22.1C124.1 21.9 123.6 21.8 123.1 21.8C122.3 21.8 121.8 22.2 121.8 22.9Z" fill="#111111"/>
  <path d="M133.3 18.4L129.5 27.4H128.1L129.5 24.4L127 18.4H128.5L130.3 23H130.3L132 18.4H133.3Z" fill="#111111"/>
  <path d="M61.7 42.4H57.9L57 45.1H54.5L58.2 34.8H61.6L65.3 45.1H62.6L61.7 42.4ZM58.5 40.4H61.1L59.8 36.5H59.8L58.5 40.4Z" fill="#111111"/>
  <path d="M75.3 40.7C75.3 43.6 73.7 45.3 71.2 45.3H67.1V34.8H71.2C73.7 34.8 75.3 36.6 75.3 40.7ZM72.8 40.1C72.8 38 72 36.9 70.6 36.9H69.6V43.1H70.6C72 43.1 72.8 42.1 72.8 40.1Z" fill="#111111"/>
  <path d="M86.6 40.7C86.6 43.6 85 45.3 82.5 45.3H78.4V34.8H82.5C85 34.8 86.6 36.6 86.6 40.7ZM84.1 40.1C84.1 38 83.3 36.9 81.9 36.9H80.9V43.1H81.9C83.3 43.1 84.1 42.1 84.1 40.1Z" fill="#111111"/>
  <path d="M98.8 42C99 42.8 99.8 43.3 101 43.3C102.1 43.3 102.8 42.8 102.8 42.1C102.8 41.5 102.4 41.1 101.2 40.9L99.8 40.6C97.9 40.1 96.9 39.1 96.9 37.6C96.9 35.7 98.6 34.4 101 34.4C103.5 34.4 105.1 35.7 105.2 37.6H102.8C102.7 36.8 102 36.4 101 36.4C100 36.4 99.3 36.8 99.3 37.5C99.3 38.1 99.8 38.4 100.9 38.7L102.2 39C104.3 39.5 105.3 40.4 105.3 42C105.3 44 103.5 45.3 100.8 45.3C98.1 45.3 96.4 44.1 96.3 42H98.8Z" fill="#111111"/>
  <path d="M111.4 36V37.8H112.9V39.6H111.4V42.9C111.4 43.5 111.7 43.7 112.3 43.7C112.5 43.7 112.7 43.7 112.9 43.7V45.1C112.6 45.2 112.2 45.2 111.7 45.2C109.8 45.2 109 44.6 109 43V39.6H107.9V37.8H109V36H111.4Z" fill="#111111"/>
  <path d="M115.1 41.4C115.1 39 116.6 37.5 118.9 37.5C121.2 37.5 122.7 39 122.7 41.4C122.7 43.8 121.2 45.3 118.9 45.3C116.6 45.3 115.1 43.8 115.1 41.4ZM120.3 41.4C120.3 40.1 119.8 39.4 118.9 39.4C118 39.4 117.5 40.1 117.5 41.4C117.5 42.7 118 43.5 118.9 43.5C119.8 43.5 120.3 42.7 120.3 41.4Z" fill="#111111"/>
  <path d="M126 37.8H128.3V39.1H128.4C128.7 38.2 129.4 37.7 130.3 37.7C130.5 37.7 130.8 37.7 130.9 37.8V39.9C130.7 39.9 130.3 39.8 130 39.8C129 39.8 128.4 40.4 128.4 41.5V45.1H126V37.8Z" fill="#111111"/>
  <path d="M140 42.8C139.6 44.4 138.2 45.3 136.1 45.3C133.7 45.3 132.3 43.8 132.3 41.4C132.3 39 133.7 37.5 136 37.5C138.3 37.5 139.7 39 139.7 41.3V42H134.7C134.7 43 135.2 43.6 136.1 43.6C136.7 43.6 137.2 43.3 137.4 42.8H140ZM134.7 40.6H137.3C137.2 39.8 136.7 39.2 136 39.2C135.3 39.2 134.8 39.8 134.7 40.6Z" fill="#111111"/>
</svg>
