<svg width="40" height="40" viewBox="0 0 40 40" fill="none" xmlns="http://www.w3.org/2000/svg"><path d="M23.6 9.8C25 8.1 25.9 5.9 25.7 3.7C23.6 3.8 21.2 5.1 19.8 6.7C18.5 8.1 17.4 10.4 17.7 12.5C20 12.7 22.3 11.4 23.6 9.8Z" fill="currentColor"/><path d="M29.7 20.8C29.7 15.8 33.8 13.4 34 13.3C31.7 9.8 28.2 9.3 27 9.3C23.7 8.9 20.6 11.3 18.9 11.3C17.1 11.3 14.4 9.4 11.7 9.5C8.2 9.6 4.9 11.6 3.1 14.7C-0.4 20.6 2.2 29.3 5.6 34.1C7.3 36.4 9.2 39 11.7 38.9C14.1 38.8 15 37.4 18 37.4C21 37.4 21.8 38.9 24.3 38.8C26.9 38.8 28.5 36.5 30.1 34.2C32 31.5 32.7 28.9 32.8 28.8C32.7 28.8 29.7 27.6 29.7 20.8Z" fill="currentColor"/></svg>