<svg viewBox="0 0 64 64" fill="none" xmlns="http://www.w3.org/2000/svg"><path d="M10 22C10 17.6 13.6 14 18 14H26L31 20H46C50.4 20 54 23.6 54 28V30H23C20.4 30 18.1 31.7 17.3 34.2L12.5 48.8C12.1 50.1 11 51 9.7 51C8.2 51 7.1 49.6 7.5 48.2L10 40.1V22Z" stroke="currentColor" stroke-width="4" stroke-linejoin="round"/><path d="M19 30H55L49.4 46.8C48.6 49.2 46.4 50.8 43.9 50.8H15.4C12.8 50.8 11 48.3 11.8 45.8L15.1 35.9C15.9 33.5 18.2 32 20.7 32H19V30Z" fill="currentColor" fill-opacity="0.2" stroke="currentColor" stroke-width="4" stroke-linejoin="round"/></svg>