<svg width="112" height="20" viewBox="0 0 112 20" xmlns="http://www.w3.org/2000/svg"><g fill="#F5BD00"><path transform="translate(0 0)" d="M10 1.4l2.5 5.1 5.7.8-4.1 4 1 5.7L10 14.2 4.9 17l1-5.7-4.1-4 5.7-.8L10 1.4Z"/><path transform="translate(22 0)" d="M10 1.4l2.5 5.1 5.7.8-4.1 4 1 5.7L10 14.2 4.9 17l1-5.7-4.1-4 5.7-.8L10 1.4Z"/><path transform="translate(44 0)" d="M10 1.4l2.5 5.1 5.7.8-4.1 4 1 5.7L10 14.2 4.9 17l1-5.7-4.1-4 5.7-.8L10 1.4Z"/><path transform="translate(66 0)" d="M10 1.4l2.5 5.1 5.7.8-4.1 4 1 5.7L10 14.2 4.9 17l1-5.7-4.1-4 5.7-.8L10 1.4Z"/><path transform="translate(88 0)" d="M10 1.4l2.5 5.1 5.7.8-4.1 4 1 5.7L10 14.2 4.9 17l1-5.7-4.1-4 5.7-.8L10 1.4Z"/></g></svg>